<?xml version="1.0" encoding="utf-8"?>
<!-- Generator: Adobe Illustrator 16.0.0, SVG Export Plug-In . SVG Version: 6.00 Build 0)  -->
<!DOCTYPE svg PUBLIC "-//W3C//DTD SVG 1.1//EN" "http://www.w3.org/Graphics/SVG/1.1/DTD/svg11.dtd">
<svg version="1.1" id="Layer_1" xmlns="http://www.w3.org/2000/svg" xmlns:xlink="http://www.w3.org/1999/xlink" x="0px" y="0px"
	 width="60px" height="60px" viewBox="0 0 60 60" enable-background="new 0 0 60 60" xml:space="preserve">
<g>
	<path fill-rule="evenodd" clip-rule="evenodd" fill="#ECEC00" d="M5.599,27.244v-2.656v-1.5h1.5h1.17
		c0.038-0.343,0.107-0.664,0.173-0.986c-1.1,0.159-2.2,0.315-3.299,0.473c-0.818,0.117-1.651,0.23-1.973,1.137
		c-0.324,0.912,0.123,1.571,0.776,2.202c0.553,0.534,1.102,1.072,1.653,1.607V27.244z"/>
	<path fill-rule="evenodd" clip-rule="evenodd" fill="#ECEC00" d="M7.099,28.744H6.857c0.443,0.432,0.888,0.862,1.331,1.294v-1.294
		H7.099z"/>
	<path fill-rule="evenodd" clip-rule="evenodd" fill="#ECEC00" d="M25.526,35.696c-0.858,0.697-0.957,1.328-0.957,1.741
		c0,0.626,0,1.272,1.771,1.272c0.995,0,1.893-0.438,2.733-1.334v-2.507c-0.366-0.059-0.533-0.065-0.592-0.065
		C27.231,34.804,26.265,35.096,25.526,35.696z"/>
	<path fill-rule="evenodd" clip-rule="evenodd" fill="#ECEC00" d="M51.582,30.143c1.52-1.486,3.036-2.976,4.551-4.467
		c0.344-0.338,0.54-0.826,0.806-1.245c-0.133-1.113-0.677-1.634-1.999-1.827c-4.787-0.699-9.569-1.447-14.368-2.05
		c-1.308-0.164-1.983-0.68-2.54-1.854c-2.094-4.423-4.313-8.786-6.465-13.181c-0.385-0.786-0.92-1.23-1.824-1.15
		c-0.759,0.067-1.142,0.563-1.452,1.193c-2.262,4.599-4.552,9.184-6.789,13.795c-0.331,0.682-0.75,0.982-1.479,1.084
		c-0.235,0.033-0.47,0.068-0.706,0.101l-0.042,0.111l-0.515,1.361l-1.376-0.474c-0.482-0.167-0.921-0.25-1.305-0.25
		c-0.522,0-0.905,0.176-1.243,0.571c-0.285,0.333-0.462,0.737-0.537,1.227h2.162h1.5v1.5v2.656v1.5h-1.5h-2.119v7.272
		c0.152,0.147,0.303,0.296,0.455,0.442c0.536,0.517,0.727,1.014,0.596,1.747c-0.75,4.194-1.465,8.396-2.189,12.594
		c-0.151,0.88-0.252,1.77-0.442,2.641c-0.165,0.753-0.031,1.383,0.579,1.855c0.617,0.479,1.274,0.419,1.943,0.066
		c4.127-2.174,8.313-4.243,12.361-6.556c1.688-0.964,2.954-0.927,4.625,0.023c4.026,2.291,8.187,4.349,12.285,6.513
		c0.671,0.354,1.318,0.434,1.946-0.024c0.624-0.455,0.752-1.08,0.621-1.838c-0.564-3.259-1.111-6.521-1.672-9.78h-0.353h-0.83
		h-0.665l-0.257-0.613l-7.619-18.162l-0.582-1.387h1.504h3.453h0.691l0.244,0.647l3.771,9.998l3.856-10.004l0.246-0.64h0.687h3.303
		h1.518l-0.599,1.395L51.582,30.143z M35.228,31.61v6.375c0,0.97,0.211,1.579,0.627,1.813l0.768,0.43v0.879v1.577v1.5h-1.5
		c-1.564,0-2.751-0.244-3.627-0.747c-0.357-0.205-0.678-0.456-0.958-0.751c-1.431,1.006-3.259,1.515-5.459,1.515
		c-1.799,0-3.375-0.657-4.683-1.953c-1.314-1.299-1.98-2.929-1.98-4.843c0-2.277,0.988-4.212,2.936-5.752
		c1.842-1.453,4.185-2.189,6.964-2.189c0.131,0,0.264,0.004,0.398,0.012c-0.391-0.712-1.083-0.897-1.992-0.897
		c-1.57,0-2.711,0.377-3.488,1.154L21.766,31.2l-0.933-1.854l-1.328-2.64l-0.542-1.076l0.934-0.761
		c0.748-0.609,1.716-1.104,2.958-1.515c1.204-0.397,2.381-0.599,3.5-0.599c2.979,0,5.228,0.741,6.683,2.202
		C34.491,26.417,35.228,28.655,35.228,31.61z"/>
</g>
<rect x="-36.499" y="60" fill-rule="evenodd" clip-rule="evenodd" fill="none" width="49.915" height="30.582"/>
<text transform="matrix(1 0 0 1 -35.082 85.0576)" fill="#0C052E" font-family="'TrebuchetMS'" font-size="34">fav</text>
<g>
	<path fill="#0C052E" d="M17.873,20.122c-0.643-0.221-1.24-0.332-1.793-0.332c-0.963,0-1.758,0.365-2.383,1.096
		s-0.938,1.654-0.938,2.772c0,0.299,0.027,0.608,0.082,0.93h3.619v2.656h-3.619v15.124H9.688V27.244h-2.59v-2.656h2.59
		c0-2.269,0.559-4.051,1.678-5.346c1.117-1.295,2.595-1.942,4.432-1.942c0.919,0,1.904,0.166,2.955,0.498L17.873,20.122z"/>
	<path fill="#0C052E" d="M30.871,40.326c-1.262,1.583-3.193,2.374-5.793,2.374c-1.395,0-2.604-0.506-3.628-1.52
		c-1.024-1.012-1.536-2.271-1.536-3.776c0-1.804,0.789-3.328,2.366-4.574c1.577-1.244,3.589-1.867,6.034-1.867
		c0.664,0,1.417,0.145,2.258,0.432c0-2.877-1.283-4.316-3.852-4.316c-1.97,0-3.486,0.531-4.549,1.594l-1.328-2.64
		c0.598-0.486,1.426-0.904,2.482-1.254c1.057-0.348,2.066-0.522,3.029-0.522c2.579,0,4.452,0.587,5.62,1.76
		c1.167,1.174,1.751,3.038,1.751,5.595v6.375c0,1.561,0.465,2.601,1.395,3.121v1.577c-1.283,0-2.244-0.183-2.88-0.548
		C31.604,41.771,31.148,41.167,30.871,40.326z M30.572,33.636c-0.996-0.222-1.693-0.332-2.092-0.332c-1.594,0-2.895,0.409-3.9,1.229
		c-1.008,0.819-1.512,1.788-1.512,2.905c0,1.849,1.09,2.772,3.271,2.772c1.594,0,3.004-0.758,4.232-2.274V33.636z"/>
	<path fill="#0C052E" d="M45.1,42.7h-0.83l-7.621-18.162h3.453l4.699,12.451l4.797-12.451h3.305L45.1,42.7z"/>
</g>
</svg>
